<svg width="1439" height="101" viewBox="0 0 1439 101" fill="none" xmlns="http://www.w3.org/2000/svg">
    <path fill-rule="evenodd" clip-rule="evenodd" d="M0 11.2357L16.8944 6.80655C34.7826 2.67267 68.5714 -5.89037 103.354 6.80655C137.143 19.7987 171.925 54.0509 205.714 68.8148C240.497 83.8739 274.286 79.74 309.068 64.6809C342.857 49.6217 377.64 23.9326 411.429 23.9326C446.211 23.9326 480 49.6217 514.783 47.5548C548.571 45.4879 583.354 15.3696 617.143 4.73961C651.925 -5.89037 685.714 2.67267 720.497 17.4365C754.286 32.4957 789.068 54.0509 822.857 62.614C857.64 71.177 891.429 66.7478 926.211 62.614C960 58.1848 994.783 54.0509 1028.57 47.5548C1063.35 41.0587 1097.14 32.4957 1131.93 25.9996C1165.71 19.7987 1200.5 15.3696 1234.29 15.3696C1269.07 15.3696 1302.86 19.7987 1337.64 23.9326C1371.43 28.3618 1406.21 32.4957 1423.11 34.5626L1440 36.9248V101H1423.11C1406.21 101 1371.43 101 1337.64 101C1302.86 101 1269.07 101 1234.29 101C1200.5 101 1165.71 101 1131.93 101C1097.14 101 1063.35 101 1028.57 101C994.783 101 960 101 926.211 101C891.429 101 857.64 101 822.857 101C789.068 101 754.286 101 720.497 101C685.714 101 651.925 101 617.143 101C583.354 101 548.571 101 514.783 101C480 101 446.211 101 411.429 101C377.64 101 342.857 101 309.068 101C274.286 101 240.497 101 205.714 101C171.925 101 137.143 101 103.354 101C68.5714 101 34.7826 101 16.8944 101H0V11.2357Z" fill="#5B4CAD"/>
</svg>
