<svg width="1439" height="132" viewBox="0 0 1439 132" fill="none" xmlns="http://www.w3.org/2000/svg">
    <path fill-rule="evenodd" clip-rule="evenodd" d="M0 13.3837L21.9847 16.133C43.9694 18.8824 86.9396 24.3812 130.909 33.0221C174.878 41.6631 217.849 52.6606 261.818 66.8003C304.788 80.94 348.758 98.2218 392.727 80.94C435.697 64.0509 479.667 13.3837 523.636 16.133C566.606 18.8824 610.576 75.4412 654.545 78.1906C697.515 80.94 741.485 30.2727 784.455 24.3812C828.424 18.8824 872.394 58.5521 915.364 61.3015C959.333 64.0509 1003.3 30.2727 1046.27 13.3837C1090.24 -3.89819 1134.21 -3.89819 1177.18 10.2415C1221.15 24.3812 1264.12 52.6606 1308.09 64.0509C1352.06 75.4412 1395.03 69.9424 1417.02 66.8003L1439 64.0509V132H1417.02C1395.03 132 1352.06 132 1308.09 132C1264.12 132 1221.15 132 1177.18 132C1134.21 132 1090.24 132 1046.27 132C1003.3 132 959.333 132 915.364 132C872.394 132 828.424 132 784.455 132C741.485 132 697.515 132 654.545 132C610.576 132 566.606 132 523.636 132C479.667 132 435.697 132 392.727 132C348.758 132 304.788 132 261.818 132C217.849 132 174.878 132 130.909 132C86.9396 132 43.9694 132 21.9847 132H0V13.3837Z" fill="#8476CD"/>
</svg>
