<?xml version="1.0" encoding="utf-8"?>
<svg width="1440" height="118" viewBox="0 0 1440 118" fill="none" xmlns="http://www.w3.org/2000/svg">
  <g filter="url(#filter0_iiii_121_91)">
    <path fill-rule="evenodd" clip-rule="evenodd" d="M 0 18.974 L 30 21.037 C 60 23.1 120 27.226 180 39.604 C 240 51.982 269.5 10.721 329.5 18.974 C 389.5 27.226 450 80.865 504 49.919 C 558 18.974 615 -1.657 675 2.469 C 735 6.595 850.5 41.542 910.5 39.479 C 970.5 37.416 1001 9.221 1061 0.969 C 1121 -7.283 1200 39.604 1260 49.919 C 1320 60.235 1380 64.361 1410 66.424 L 1440 68.487 L 1440 118 C 1439.98 118 1439.96 118 1439.94 118 L 1439.94 102.757 L 1409.94 100.694 C 1379.94 98.631 1319.94 94.505 1259.95 84.19 C 1199.95 73.874 1120.95 26.987 1060.95 35.239 C 1000.95 43.491 970.453 71.686 910.453 73.749 C 850.453 75.812 734.953 40.866 674.953 36.74 C 614.953 32.614 557.953 53.244 503.953 84.19 C 449.952 115.135 389.452 61.496 329.452 53.244 C 269.452 44.992 239.952 86.253 179.952 73.874 C 119.948 61.496 59.948 57.37 29.948 55.307 L 0 53.248 Z" fill="#7768C7"/>
  </g>
  <defs>
    <filter id="filter0_iiii_121_91" x="0" y="0" width="1440" height="959" filterUnits="userSpaceOnUse" color-interpolation-filters="sRGB">
      <feFlood flood-opacity="0" result="BackgroundImageFix"/>
      <feBlend mode="normal" in="SourceGraphic" in2="BackgroundImageFix" result="shape"/>
      <feColorMatrix in="SourceAlpha" type="matrix" values="0 0 0 0 0 0 0 0 0 0 0 0 0 0 0 0 0 0 127 0" result="hardAlpha"/>
      <feOffset dy="6"/>
      <feGaussianBlur stdDeviation="6"/>
      <feComposite in2="hardAlpha" operator="arithmetic" k2="-1" k3="1"/>
      <feColorMatrix type="matrix" values="0 0 0 0 0.0431373 0 0 0 0 0.0392157 0 0 0 0 0.219608 0 0 0 0.1 0"/>
      <feBlend mode="normal" in2="shape" result="effect1_innerShadow_121_91"/>
      <feColorMatrix in="SourceAlpha" type="matrix" values="0 0 0 0 0 0 0 0 0 0 0 0 0 0 0 0 0 0 127 0" result="hardAlpha"/>
      <feOffset dy="22"/>
      <feGaussianBlur stdDeviation="11"/>
      <feComposite in2="hardAlpha" operator="arithmetic" k2="-1" k3="1"/>
      <feColorMatrix type="matrix" values="0 0 0 0 0.0431373 0 0 0 0 0.0392157 0 0 0 0 0.219608 0 0 0 0.09 0"/>
      <feBlend mode="normal" in2="effect1_innerShadow_121_91" result="effect2_innerShadow_121_91"/>
      <feColorMatrix in="SourceAlpha" type="matrix" values="0 0 0 0 0 0 0 0 0 0 0 0 0 0 0 0 0 0 127 0" result="hardAlpha"/>
      <feOffset dy="51"/>
      <feGaussianBlur stdDeviation="15"/>
      <feComposite in2="hardAlpha" operator="arithmetic" k2="-1" k3="1"/>
      <feColorMatrix type="matrix" values="0 0 0 0 0.0431373 0 0 0 0 0.0392157 0 0 0 0 0.219608 0 0 0 0.05 0"/>
      <feBlend mode="normal" in2="effect2_innerShadow_121_91" result="effect3_innerShadow_121_91"/>
      <feColorMatrix in="SourceAlpha" type="matrix" values="0 0 0 0 0 0 0 0 0 0 0 0 0 0 0 0 0 0 127 0" result="hardAlpha"/>
      <feOffset dy="90"/>
      <feGaussianBlur stdDeviation="18"/>
      <feComposite in2="hardAlpha" operator="arithmetic" k2="-1" k3="1"/>
      <feColorMatrix type="matrix" values="0 0 0 0 0.0431373 0 0 0 0 0.0392157 0 0 0 0 0.219608 0 0 0 0.01 0"/>
      <feBlend mode="normal" in2="effect3_innerShadow_121_91" result="effect4_innerShadow_121_91"/>
    </filter>
  </defs>
</svg>