<svg width="1440" height="1435" viewBox="0 0 1440 1435" fill="none" xmlns="http://www.w3.org/2000/svg">
<g clip-path="url(#clip0_600_119)">
<rect width="1440" height="1435" fill="#8476CD"/>
<g filter="url(#filter0_iiii_600_119)">
<rect y="229" width="1440" height="423" fill="#7768C7"/>
<path fill-rule="evenodd" clip-rule="evenodd" d="M0 170.444L20.4 179.259C39.6 188.074 80.4 205.704 120 214.519C159.6 223.333 200.4 223.333 240 210.111C279.6 196.889 320.4 170.444 360 166.037C399.6 161.63 440.4 179.259 480 190.278C519.6 201.296 560.4 205.704 600 203.5C639.6 201.296 680.4 192.481 720 194.685C759.6 196.889 800.4 210.111 840 216.722C879.6 223.333 920.4 223.333 960 210.111C999.6 196.889 1040.4 170.444 1080 159.426C1119.6 148.407 1160.4 152.815 1200 172.648C1239.6 192.481 1280.4 227.741 1320 225.537C1359.6 223.333 1400.4 183.667 1419.6 163.833L1440 144V263H1419.6C1400.4 263 1359.6 263 1320 263C1280.4 263 1239.6 263 1200 263C1160.4 263 1119.6 263 1080 263C1040.4 263 999.6 263 960 263C920.4 263 879.6 263 840 263C800.4 263 759.6 263 720 263C680.4 263 639.6 263 600 263C560.4 263 519.6 263 480 263C440.4 263 399.6 263 360 263C320.4 263 279.6 263 240 263C200.4 263 159.6 263 120 263C80.4 263 39.6 263 20.4 263H0V170.444Z" fill="#7768C7"/>
</g>
<g filter="url(#filter1_iiii_600_119)">
<rect y="677" width="1443" height="471" fill="#5B4CAD"/>
<path fill-rule="evenodd" clip-rule="evenodd" d="M0 512L22 530.239C44 548.902 87 585.38 131 600.65C175 615.92 218 609.982 262 594.712C305 579.442 349 554.841 393 560.779C436 567.141 480 603.62 524 615.92C567 628.221 611 615.92 655 606.589C698 597.681 742 591.319 785 600.65C829 609.982 873 634.159 916 621.859C960 609.982 1004 560.779 1047 554.841C1091 548.902 1135 585.38 1178 585.38C1222 585.38 1265 548.902 1309 533.632C1353 518.362 1396 524.301 1418 527.27L1440 530.239V677H1418C1396 677 1353 677 1309 677C1265 677 1222 677 1178 677C1135 677 1091 677 1047 677C1004 677 960 677 916 677C873 677 829 677 785 677C742 677 698 677 655 677C611 677 567 677 524 677C480 677 436 677 393 677C349 677 305 677 262 677C218 677 175 677 131 677C87 677 44 677 22 677H0V512Z" fill="#5B4CAD"/>
</g>
<g filter="url(#filter2_dddd_600_119)">
<rect y="1071" width="1440" height="286" fill="#7768C7"/>
<path fill-rule="evenodd" clip-rule="evenodd" d="M0 971.033L24 965.243C48 959.84 96 948.647 144 937.453C192 926.646 240 915.453 288 926.646C336 937.453 384 971.033 432 993.033C480 1015.42 528 1026.61 576 1015.42C624 1004.23 672 971.033 720 954.436C768 937.453 816 937.453 864 959.84C912 982.226 960 1026.61 1008 1023.91C1056 1020.82 1104 971.033 1152 957.138C1200 943.243 1248 965.243 1296 968.331C1344 971.033 1392 954.436 1416 945.945L1440 937.453V1071H1416C1392 1071 1344 1071 1296 1071C1248 1071 1200 1071 1152 1071C1104 1071 1056 1071 1008 1071C960 1071 912 1071 864 1071C816 1071 768 1071 720 1071C672 1071 624 1071 576 1071C528 1071 480 1071 432 1071C384 1071 336 1071 288 1071C240 1071 192 1071 144 1071C96 1071 48 1071 24 1071H0V971.033Z" fill="#7768C7"/>
</g>
<g filter="url(#filter3_dddd_600_119)">
<rect y="1361" width="1443" height="471" fill="#8476CD"/>
<path fill-rule="evenodd" clip-rule="evenodd" d="M0 1305.93L20.4 1310.52C39.6 1315.11 80.4 1324.29 120 1324.29C159.6 1324.29 200.4 1315.11 240 1305.93C279.6 1296.75 320.4 1287.58 360 1296.75C399.6 1305.93 440.4 1333.47 480 1335.76C519.6 1338.05 560.4 1315.11 600 1315.11C639.6 1315.11 680.4 1338.05 720 1333.47C759.6 1328.88 800.4 1296.75 840 1280.69C879.6 1264.63 920.4 1264.63 960 1276.1C999.6 1287.58 1040.4 1310.52 1080 1315.11C1119.6 1319.7 1160.4 1305.93 1200 1310.52C1239.6 1315.11 1280.4 1338.05 1320 1347.23C1359.6 1356.41 1400.4 1351.82 1419.6 1349.53L1440 1347.23V1361H1419.6C1400.4 1361 1359.6 1361 1320 1361C1280.4 1361 1239.6 1361 1200 1361C1160.4 1361 1119.6 1361 1080 1361C1040.4 1361 999.6 1361 960 1361C920.4 1361 879.6 1361 840 1361C800.4 1361 759.6 1361 720 1361C680.4 1361 639.6 1361 600 1361C560.4 1361 519.6 1361 480 1361C440.4 1361 399.6 1361 360 1361C320.4 1361 279.6 1361 240 1361C200.4 1361 159.6 1361 120 1361C80.4 1361 39.6 1361 20.4 1361H0V1305.93Z" fill="#8476CD"/>
</g>
</g>
<defs>
<filter id="filter0_iiii_600_119" x="0" y="144" width="1440" height="561" filterUnits="userSpaceOnUse" color-interpolation-filters="sRGB">
<feFlood flood-opacity="0" result="BackgroundImageFix"/>
<feBlend mode="normal" in="SourceGraphic" in2="BackgroundImageFix" result="shape"/>
<feColorMatrix in="SourceAlpha" type="matrix" values="0 0 0 0 0 0 0 0 0 0 0 0 0 0 0 0 0 0 127 0" result="hardAlpha"/>
<feOffset dy="8"/>
<feGaussianBlur stdDeviation="9"/>
<feComposite in2="hardAlpha" operator="arithmetic" k2="-1" k3="1"/>
<feColorMatrix type="matrix" values="0 0 0 0 0.101961 0 0 0 0 0.027451 0 0 0 0 0.172549 0 0 0 0.1 0"/>
<feBlend mode="normal" in2="shape" result="effect1_innerShadow_600_119"/>
<feColorMatrix in="SourceAlpha" type="matrix" values="0 0 0 0 0 0 0 0 0 0 0 0 0 0 0 0 0 0 127 0" result="hardAlpha"/>
<feOffset dy="33"/>
<feGaussianBlur stdDeviation="16.5"/>
<feComposite in2="hardAlpha" operator="arithmetic" k2="-1" k3="1"/>
<feColorMatrix type="matrix" values="0 0 0 0 0.101961 0 0 0 0 0.027451 0 0 0 0 0.172549 0 0 0 0.09 0"/>
<feBlend mode="normal" in2="effect1_innerShadow_600_119" result="effect2_innerShadow_600_119"/>
<feColorMatrix in="SourceAlpha" type="matrix" values="0 0 0 0 0 0 0 0 0 0 0 0 0 0 0 0 0 0 127 0" result="hardAlpha"/>
<feOffset dy="74"/>
<feGaussianBlur stdDeviation="22.5"/>
<feComposite in2="hardAlpha" operator="arithmetic" k2="-1" k3="1"/>
<feColorMatrix type="matrix" values="0 0 0 0 0.101961 0 0 0 0 0.027451 0 0 0 0 0.172549 0 0 0 0.05 0"/>
<feBlend mode="normal" in2="effect2_innerShadow_600_119" result="effect3_innerShadow_600_119"/>
<feColorMatrix in="SourceAlpha" type="matrix" values="0 0 0 0 0 0 0 0 0 0 0 0 0 0 0 0 0 0 127 0" result="hardAlpha"/>
<feOffset dy="132"/>
<feGaussianBlur stdDeviation="26.5"/>
<feComposite in2="hardAlpha" operator="arithmetic" k2="-1" k3="1"/>
<feColorMatrix type="matrix" values="0 0 0 0 0.101961 0 0 0 0 0.027451 0 0 0 0 0.172549 0 0 0 0.01 0"/>
<feBlend mode="normal" in2="effect3_innerShadow_600_119" result="effect4_innerShadow_600_119"/>
</filter>
<filter id="filter1_iiii_600_119" x="0" y="512" width="1477" height="733" filterUnits="userSpaceOnUse" color-interpolation-filters="sRGB">
<feFlood flood-opacity="0" result="BackgroundImageFix"/>
<feBlend mode="normal" in="SourceGraphic" in2="BackgroundImageFix" result="shape"/>
<feColorMatrix in="SourceAlpha" type="matrix" values="0 0 0 0 0 0 0 0 0 0 0 0 0 0 0 0 0 0 127 0" result="hardAlpha"/>
<feOffset dx="2" dy="15"/>
<feGaussianBlur stdDeviation="16.5"/>
<feComposite in2="hardAlpha" operator="arithmetic" k2="-1" k3="1"/>
<feColorMatrix type="matrix" values="0 0 0 0 0.0588235 0 0 0 0 0.027451 0 0 0 0 0.294118 0 0 0 0.1 0"/>
<feBlend mode="normal" in2="shape" result="effect1_innerShadow_600_119"/>
<feColorMatrix in="SourceAlpha" type="matrix" values="0 0 0 0 0 0 0 0 0 0 0 0 0 0 0 0 0 0 127 0" result="hardAlpha"/>
<feOffset dx="8" dy="60"/>
<feGaussianBlur stdDeviation="30.5"/>
<feComposite in2="hardAlpha" operator="arithmetic" k2="-1" k3="1"/>
<feColorMatrix type="matrix" values="0 0 0 0 0.0588235 0 0 0 0 0.027451 0 0 0 0 0.294118 0 0 0 0.09 0"/>
<feBlend mode="normal" in2="effect1_innerShadow_600_119" result="effect2_innerShadow_600_119"/>
<feColorMatrix in="SourceAlpha" type="matrix" values="0 0 0 0 0 0 0 0 0 0 0 0 0 0 0 0 0 0 127 0" result="hardAlpha"/>
<feOffset dx="19" dy="135"/>
<feGaussianBlur stdDeviation="41"/>
<feComposite in2="hardAlpha" operator="arithmetic" k2="-1" k3="1"/>
<feColorMatrix type="matrix" values="0 0 0 0 0.0588235 0 0 0 0 0.027451 0 0 0 0 0.294118 0 0 0 0.05 0"/>
<feBlend mode="normal" in2="effect2_innerShadow_600_119" result="effect3_innerShadow_600_119"/>
<feColorMatrix in="SourceAlpha" type="matrix" values="0 0 0 0 0 0 0 0 0 0 0 0 0 0 0 0 0 0 127 0" result="hardAlpha"/>
<feOffset dx="34" dy="241"/>
<feGaussianBlur stdDeviation="48.5"/>
<feComposite in2="hardAlpha" operator="arithmetic" k2="-1" k3="1"/>
<feColorMatrix type="matrix" values="0 0 0 0 0.0588235 0 0 0 0 0.027451 0 0 0 0 0.294118 0 0 0 0.01 0"/>
<feBlend mode="normal" in2="effect3_innerShadow_600_119" result="effect4_innerShadow_600_119"/>
</filter>
<filter id="filter2_dddd_600_119" x="-59" y="715" width="1558" height="653" filterUnits="userSpaceOnUse" color-interpolation-filters="sRGB">
<feFlood flood-opacity="0" result="BackgroundImageFix"/>
<feColorMatrix in="SourceAlpha" type="matrix" values="0 0 0 0 0 0 0 0 0 0 0 0 0 0 0 0 0 0 127 0" result="hardAlpha"/>
<feOffset dy="-9"/>
<feGaussianBlur stdDeviation="10"/>
<feColorMatrix type="matrix" values="0 0 0 0 0.129412 0 0 0 0 0.137255 0 0 0 0 0.372549 0 0 0 0.1 0"/>
<feBlend mode="normal" in2="BackgroundImageFix" result="effect1_dropShadow_600_119"/>
<feColorMatrix in="SourceAlpha" type="matrix" values="0 0 0 0 0 0 0 0 0 0 0 0 0 0 0 0 0 0 127 0" result="hardAlpha"/>
<feOffset dy="-37"/>
<feGaussianBlur stdDeviation="18.5"/>
<feColorMatrix type="matrix" values="0 0 0 0 0.129412 0 0 0 0 0.137255 0 0 0 0 0.372549 0 0 0 0.09 0"/>
<feBlend mode="normal" in2="effect1_dropShadow_600_119" result="effect2_dropShadow_600_119"/>
<feColorMatrix in="SourceAlpha" type="matrix" values="0 0 0 0 0 0 0 0 0 0 0 0 0 0 0 0 0 0 127 0" result="hardAlpha"/>
<feOffset dy="-83"/>
<feGaussianBlur stdDeviation="25"/>
<feColorMatrix type="matrix" values="0 0 0 0 0.129412 0 0 0 0 0.137255 0 0 0 0 0.372549 0 0 0 0.05 0"/>
<feBlend mode="normal" in2="effect2_dropShadow_600_119" result="effect3_dropShadow_600_119"/>
<feColorMatrix in="SourceAlpha" type="matrix" values="0 0 0 0 0 0 0 0 0 0 0 0 0 0 0 0 0 0 127 0" result="hardAlpha"/>
<feOffset dy="-148"/>
<feGaussianBlur stdDeviation="29.5"/>
<feColorMatrix type="matrix" values="0 0 0 0 0.129412 0 0 0 0 0.137255 0 0 0 0 0.372549 0 0 0 0.01 0"/>
<feBlend mode="normal" in2="effect3_dropShadow_600_119" result="effect4_dropShadow_600_119"/>
<feBlend mode="normal" in="SourceGraphic" in2="effect4_dropShadow_600_119" result="shape"/>
</filter>
<filter id="filter3_dddd_600_119" x="-137" y="789" width="1717" height="1069" filterUnits="userSpaceOnUse" color-interpolation-filters="sRGB">
<feFlood flood-opacity="0" result="BackgroundImageFix"/>
<feColorMatrix in="SourceAlpha" type="matrix" values="0 0 0 0 0 0 0 0 0 0 0 0 0 0 0 0 0 0 127 0" result="hardAlpha"/>
<feOffset dy="-21"/>
<feGaussianBlur stdDeviation="23.5"/>
<feColorMatrix type="matrix" values="0 0 0 0 0 0 0 0 0 0 0 0 0 0 0 0 0 0 0.1 0"/>
<feBlend mode="normal" in2="BackgroundImageFix" result="effect1_dropShadow_600_119"/>
<feColorMatrix in="SourceAlpha" type="matrix" values="0 0 0 0 0 0 0 0 0 0 0 0 0 0 0 0 0 0 127 0" result="hardAlpha"/>
<feOffset dy="-85"/>
<feGaussianBlur stdDeviation="42.5"/>
<feColorMatrix type="matrix" values="0 0 0 0 0 0 0 0 0 0 0 0 0 0 0 0 0 0 0.09 0"/>
<feBlend mode="normal" in2="effect1_dropShadow_600_119" result="effect2_dropShadow_600_119"/>
<feColorMatrix in="SourceAlpha" type="matrix" values="0 0 0 0 0 0 0 0 0 0 0 0 0 0 0 0 0 0 127 0" result="hardAlpha"/>
<feOffset dy="-192"/>
<feGaussianBlur stdDeviation="57.5"/>
<feColorMatrix type="matrix" values="0 0 0 0 0 0 0 0 0 0 0 0 0 0 0 0 0 0 0.05 0"/>
<feBlend mode="normal" in2="effect2_dropShadow_600_119" result="effect3_dropShadow_600_119"/>
<feColorMatrix in="SourceAlpha" type="matrix" values="0 0 0 0 0 0 0 0 0 0 0 0 0 0 0 0 0 0 127 0" result="hardAlpha"/>
<feOffset dy="-342"/>
<feGaussianBlur stdDeviation="68.5"/>
<feColorMatrix type="matrix" values="0 0 0 0 0 0 0 0 0 0 0 0 0 0 0 0 0 0 0.01 0"/>
<feBlend mode="normal" in2="effect3_dropShadow_600_119" result="effect4_dropShadow_600_119"/>
<feBlend mode="normal" in="SourceGraphic" in2="effect4_dropShadow_600_119" result="shape"/>
</filter>
<clipPath id="clip0_600_119">
<rect width="1440" height="1435" fill="white"/>
</clipPath>
</defs>
</svg>
