<svg width="47" height="47" viewBox="0 0 47 47" fill="none" xmlns="http://www.w3.org/2000/svg">
    <g clip-path="url(#clip0_78_89)">
        <rect x="4" y="21" width="15" height="16" rx="7.5" fill="white"/>
        <rect x="27" y="20" width="17" height="18" rx="8.5" fill="white"/>
        <rect x="15" y="1" width="17" height="18" rx="8.5" fill="white"/>
        <path fill-rule="evenodd" clip-rule="evenodd" d="M33.4138 16.571C34.3044 14.9744 34.811 13.1407 34.811 11.1905C34.811 5.01015 29.7237 0 23.4483 0C17.173 0 12.0857 5.01015 12.0857 11.1905C12.0857 13.1382 12.591 14.9698 13.4795 16.5649C16.9809 16.9216 20.2651 18.8707 22.1598 22.1025C22.8068 23.2061 23.2411 24.3731 23.4755 25.5575C23.7099 24.3731 24.1442 23.2061 24.7912 22.1025C26.6754 18.8884 29.934 16.9431 33.4138 16.571ZM19.9362 4.78138C19.5369 4.78138 19.2132 5.10021 19.2132 5.49351V7.12121H17.6637C17.2644 7.12121 16.9406 7.44004 16.9406 7.83333V9.46104C16.9406 9.85433 17.2644 10.1732 17.6637 10.1732H19.2132V12.2078H17.6637C17.2644 12.2078 16.9406 12.5266 16.9406 12.9199V14.5476C16.9406 14.9409 17.2644 15.2597 17.6637 15.2597H19.2132V16.7857C19.2132 17.179 19.5369 17.4978 19.9362 17.4978H21.589C21.9883 17.4978 22.3121 17.179 22.3121 16.7857V15.2597H24.378V16.7857C24.378 17.179 24.7017 17.4978 25.1011 17.4978H26.7538C27.1532 17.4978 27.4769 17.179 27.4769 16.7857V15.2597H29.1296C29.529 15.2597 29.8527 14.9409 29.8527 14.5476V12.9199C29.8527 12.5266 29.529 12.2078 29.1296 12.2078H27.4769V10.1732H29.1296C29.529 10.1732 29.8527 9.85433 29.8527 9.46104V7.83333C29.8527 7.44004 29.529 7.12121 29.1296 7.12121H27.4769V5.49351C27.4769 5.10021 27.1532 4.78138 26.7538 4.78138H25.1011C24.7017 4.78138 24.378 5.10021 24.378 5.49351V7.12121H22.3121V5.49351C22.3121 5.10021 21.9883 4.78138 21.589 4.78138H19.9362ZM24.378 10.1732H22.3121V12.2078H24.378V10.1732Z" fill="#7768C7"/>
        <path fill-rule="evenodd" clip-rule="evenodd" d="M45.4017 34.2085C44.3314 36.0341 42.8178 37.4503 41.072 38.4015L26.3679 46.7623C25.4037 47.3105 24.1987 46.6253 24.1987 45.5289V28.8072C24.1622 26.8427 24.6507 24.8436 25.721 23.018C28.8587 17.6657 35.808 15.8318 41.2426 18.922C46.6773 22.0122 48.5393 28.8562 45.4017 34.2085ZM39.7986 22.7397C39.9442 22.065 39.128 21.6009 38.6075 22.0625L35.5764 24.7503C35.3436 24.9567 35.0023 24.9921 34.731 24.8378L31.1987 22.8294C30.5921 22.4844 29.8917 23.1055 30.1767 23.7357L31.8356 27.4054C31.963 27.6872 31.8917 28.0178 31.6589 28.2242L28.6277 30.9121C28.1072 31.3738 28.4905 32.2217 29.1872 32.1496L33.2435 31.7296C33.5551 31.6975 33.8523 31.8664 33.9797 32.1482L35.6387 35.8179C35.9236 36.4481 36.8609 36.3511 37.0065 35.6763L37.8546 31.7471C37.9197 31.4454 38.1747 31.2192 38.4863 31.187L42.5426 30.7671C43.2393 30.695 43.4352 29.787 42.8286 29.4422L39.2963 27.4337C39.0251 27.2795 38.8855 26.9707 38.9506 26.6689L39.7986 22.7397Z" fill="#F8AFC3"/>
        <path fill-rule="evenodd" clip-rule="evenodd" d="M21.2301 23.018C22.3002 24.8436 22.7888 26.8426 22.7523 28.8072V45.5289C22.7523 46.6253 21.5472 47.3105 20.5831 46.7623L5.87899 38.4015C4.13323 37.4504 2.61958 36.0341 1.54935 34.2085C-1.58836 28.8562 0.273698 22.0122 5.70836 18.922C11.143 15.8318 18.0923 17.6657 21.2301 23.018ZM18.0484 28.6547C18.0231 32.2786 15.0198 35.196 11.3401 35.1711C7.66059 35.1462 4.69817 32.1882 4.72349 28.5644C4.7488 24.9406 7.75221 22.0231 11.4318 22.048C15.1114 22.0729 18.0737 25.0309 18.0484 28.6547Z" fill="#FFC114"/>
        <path fill-rule="evenodd" clip-rule="evenodd" d="M14.9002 27.2044C15.2488 27.0063 15.701 27.1256 15.8392 27.4979C16.5748 29.4795 15.7822 31.7541 13.8632 32.8453C11.9442 33.9364 9.5477 33.4751 8.17303 31.8569C7.91468 31.553 8.03585 31.1075 8.38448 30.9093L14.9002 27.2044Z" fill="#FFC114"/>
    </g>
    <defs>
        <clipPath id="clip0_78_89">
            <rect width="47" height="47" fill="white"/>
        </clipPath>
    </defs>
</svg>
