<svg width="1440" height="118" viewBox="0 0 1440 118" fill="none" xmlns="http://www.w3.org/2000/svg">
    <path fill-rule="evenodd" clip-rule="evenodd" d="M0 18.9736L30 21.0366C60 23.0997 120 27.2258 180 39.6041C240 51.9824 269.5 10.7214 329.5 18.9736C389.5 27.2258 450 80.8649 504 49.9194C558 18.9739 615 -1.65679 675 2.46931C735 6.59541 850.5 41.5421 910.5 39.479C970.5 37.416 1001 9.22101 1061 0.968807C1121 -7.28339 1200 39.6041 1260 49.9193C1320 60.2346 1380 64.3607 1410 66.4238L1440 68.4868V118H1410C1380 118 1320 118 1260 118C1200 118 1140 118 1080 118C1020 118 960 118 900 118C840 118 780 118 720 118C660 118 600 118 540 118C480 118 420 118 360 118C300 118 240 118 180 118C120 118 60 118 30 118H0V18.9736Z" fill="#7768C7"/>
</svg>
